<?xml version="1.0" standalone="no"?>
<!DOCTYPE svg PUBLIC "-//W3C//DTD SVG 1.1//EN" "http://www.w3.org/Graphics/SVG/1.1/DTD/svg11.dtd">
<svg width="100%" height="100%" viewBox="0 0 756 236" version="1.1" xmlns="http://www.w3.org/2000/svg" xmlns:xlink="http://www.w3.org/1999/xlink" xml:space="preserve" style="fill-rule:evenodd;clip-rule:evenodd;stroke-linejoin:round;stroke-miterlimit:1.41421;">
    <g id="Artboard1" transform="matrix(1,0,0,1,-1942.73,-286.813)">
        <g transform="matrix(4.16667,0,0,4.16667,1660.7,-101.921)">
            <path d="M191.271,93.296L194.834,93.296L194.834,115.613L206.209,115.613L206.209,118.709L191.271,118.709L191.271,93.296Z" style="fill:rgb(204,204,204);fill-rule:nonzero;"/>
        </g>
        <g transform="matrix(4.16667,0,0,4.16667,1660.7,-101.921)">
            <path d="M210.315,93.296L225.073,93.296L225.073,96.391L213.878,96.391L213.878,104.346L222.985,104.346L222.985,107.442L213.878,107.442L213.878,115.613L225.685,115.613L225.685,118.709L210.315,118.709L210.315,93.296Z" style="fill:rgb(204,204,204);fill-rule:nonzero;"/>
        </g>
        <g transform="matrix(4.16667,0,0,4.16667,1660.7,-101.921)">
            <path d="M238.826,104.851L245.089,93.297L249.12,93.297L241.34,107.947" style="fill:rgb(204,204,204);fill-rule:nonzero;"/>
        </g>
        <g transform="matrix(4.16667,0,0,4.16667,1660.7,-101.921)">
            <path d="M241.339,107.946L235.339,118.709L230.964,118.709L237.433,107.946L229.28,93.296L233.312,93.296L239.503,104.85L241.339,107.946" style="fill:rgb(47,155,174);fill-rule:nonzero;"/>
        </g>
        <g transform="matrix(4.16667,0,0,4.16667,1660.7,-101.921)">
            <path d="M206.343,123.518C211.845,123.518 214.711,126.578 214.711,126.578L213.083,129.241C213.083,129.241 210.511,126.758 206.604,126.758C201.198,126.758 197.943,131.113 197.943,136.547C197.943,142.452 201.589,146.519 206.408,146.519C210.38,146.519 212.92,143.351 212.92,143.351L212.92,139.68L209.175,139.68L209.175,136.584L215.85,136.584L215.85,149.363L213.018,149.363L213.018,147.779C213.018,147.239 213.05,146.699 213.05,146.699L212.985,146.699C212.985,146.699 210.478,149.795 205.92,149.795C199.733,149.795 194.621,144.395 194.621,136.621C194.621,129.277 199.636,123.518 206.343,123.518" style="fill:rgb(204,204,204);fill-rule:nonzero;"/>
        </g>
        <g transform="matrix(4.16667,0,0,4.16667,1660.7,-101.921)">
            <path d="M219.75,123.95L234.508,123.95L234.508,127.045L223.313,127.045L223.313,135L232.42,135L232.42,138.096L223.313,138.096L223.313,146.267L235.12,146.267L235.12,149.363L219.75,149.363L219.75,123.95Z" style="fill:rgb(204,204,204);fill-rule:nonzero;"/>
        </g>
        <g transform="matrix(4.16667,0,0,4.16667,1660.7,-101.921)">
            <path d="M148.216,93.296L151.779,93.296L151.779,103.986L155.559,103.986L161.966,93.296L165.89,93.296L158.511,105.354L158.511,105.426L166.358,118.709L162.326,118.709L155.559,107.046L151.779,107.046L151.779,118.709L148.216,118.709L148.216,93.296Z" style="fill:rgb(204,204,204);fill-rule:nonzero;"/>
        </g>
        <g transform="matrix(4.16667,0,0,4.16667,1660.7,-101.921)">
            <path d="M170.643,93.296L185.401,93.296L185.401,96.391L174.206,96.391L174.206,104.346L183.313,104.346L183.313,107.442L174.206,107.442L174.206,115.613L186.013,115.613L186.013,118.709L170.643,118.709L170.643,93.296Z" style="fill:rgb(204,204,204);fill-rule:nonzero;"/>
        </g>
        <g transform="matrix(4.16667,0,0,4.16667,1660.7,-101.921)">
            <path d="M162.326,118.709L154.511,105.427L155.559,103.987L161.967,93.297L165.89,93.297L158.511,105.355L158.511,105.427L166.358,118.709L162.326,118.709Z" style="fill:rgb(47,155,174);fill-rule:nonzero;"/>
        </g>
        <g transform="matrix(4.16667,0,0,4.16667,1660.7,-101.921)">
            <path d="M160.173,127.441C160.173,127.441 159.652,129.745 159.261,131.041L156.689,139.104L163.657,139.104L161.117,131.041C160.726,129.745 160.238,127.441 160.238,127.441L160.173,127.441ZM164.471,142.055L155.81,142.055L153.531,149.362L150.21,149.362L158.48,123.949L161.866,123.949L170.136,149.362L166.783,149.362L164.471,142.055Z" style="fill:rgb(204,204,204);fill-rule:nonzero;"/>
        </g>
        <g transform="matrix(4.16667,0,0,4.16667,1660.7,-101.921)">
            <path d="M173.215,123.95L176.406,123.95L186.63,140.471C187.476,141.84 188.551,144.143 188.551,144.143L188.616,144.143C188.616,144.143 188.388,141.875 188.388,140.471L188.388,123.95L191.611,123.95L191.611,149.363L188.453,149.363L178.197,132.877C177.35,131.473 176.276,129.169 176.276,129.169L176.21,129.169C176.21,129.169 176.438,131.437 176.438,132.877L176.438,149.363L173.215,149.363L173.215,123.95Z" style="fill:rgb(204,204,204);fill-rule:nonzero;"/>
        </g>
        <g transform="matrix(4.16667,0,0,4.16667,1660.7,-101.921)">
            <path d="M90.975,115.613C93.711,115.613 95.33,113.885 95.33,111.294C95.33,108.702 93.603,106.938 90.939,106.938L85.252,106.938L85.252,115.613L90.975,115.613ZM90.579,103.987C92.883,103.987 94.323,102.367 94.323,100.135C94.323,97.904 92.955,96.391 90.507,96.391L85.252,96.391L85.252,103.987L90.579,103.987ZM81.688,93.296L90.579,93.296C94.863,93.296 97.958,95.672 97.958,99.775C97.958,102.259 96.734,104.238 94.791,105.246L94.791,105.319C97.454,106.11 98.966,108.63 98.966,111.474C98.966,116.261 95.259,118.709 90.795,118.709L81.688,118.709L81.688,93.296Z" style="fill:rgb(204,204,204);fill-rule:nonzero;"/>
        </g>
        <g transform="matrix(4.16667,0,0,4.16667,1660.7,-101.921)">
            <path d="M104.512,93.296L119.27,93.296L119.27,96.391L108.075,96.391L108.075,104.346L117.182,104.346L117.182,107.442L108.075,107.442L108.075,115.613L119.882,115.613L119.882,118.709L104.512,118.709L104.512,93.296Z" style="fill:rgb(204,204,204);fill-rule:nonzero;"/>
        </g>
        <g transform="matrix(4.16667,0,0,4.16667,1660.7,-101.921)">
            <path d="M133.815,105.499C136.587,105.499 138.315,103.735 138.315,100.892C138.315,99.02 137.595,97.688 136.299,96.968C135.615,96.608 134.787,96.392 132.807,96.392L128.704,96.392L128.704,105.499L133.815,105.499ZM125.14,93.297L132.915,93.297C135.579,93.297 136.695,93.513 137.667,93.873C140.258,94.844 141.95,97.4 141.95,100.748C141.95,103.987 140.15,106.723 137.378,107.623L137.378,107.695C137.378,107.695 137.667,108.019 138.134,108.847L143.534,118.709L139.502,118.709L134.139,108.595L128.704,108.595L128.704,118.709L125.14,118.709L125.14,93.297Z" style="fill:rgb(204,204,204);fill-rule:nonzero;"/>
        </g>
        <g transform="matrix(4.16667,0,0,4.16667,1660.7,-101.921)">
            <path d="M67.688,123.95L82.446,123.95L82.446,127.045L71.251,127.045L71.251,135L80.358,135L80.358,138.096L71.251,138.096L71.251,146.267L83.058,146.267L83.058,149.363L67.688,149.363L67.688,123.95Z" style="fill:rgb(204,204,204);fill-rule:nonzero;"/>
        </g>
        <g transform="matrix(4.16667,0,0,4.16667,1660.7,-101.921)">
            <path d="M93.123,136.26L85.6,123.95L89.704,123.95L93.699,130.825C94.491,132.193 95.319,133.848 95.319,133.848L95.391,133.848C95.391,133.848 96.111,132.229 96.938,130.825L100.934,123.95L105.038,123.95L97.515,136.26L105.541,149.363L101.51,149.363L96.903,141.552C96.075,140.112 95.283,138.636 95.283,138.636L95.211,138.636C95.211,138.636 94.527,140.148 93.699,141.552L89.092,149.363L85.096,149.363L93.123,136.26Z" style="fill:rgb(47,155,174);fill-rule:nonzero;"/>
        </g>
        <g transform="matrix(4.16667,0,0,4.16667,1660.7,-101.921)">
            <path d="M116.286,123.518C121.821,123.518 124.654,126.866 124.654,126.866L123.058,129.529C123.058,129.529 120.388,126.758 116.416,126.758C111.272,126.758 107.918,131.077 107.918,136.476C107.918,141.912 111.337,146.519 116.449,146.519C120.779,146.519 123.547,143.207 123.547,143.207L125.272,145.763C125.272,145.763 122.114,149.795 116.351,149.795C109.448,149.795 104.597,143.963 104.597,136.512C104.597,129.133 109.611,123.518 116.286,123.518" style="fill:rgb(204,204,204);fill-rule:nonzero;"/>
        </g>
        <g transform="matrix(4.16667,0,0,4.16667,1660.7,-101.921)">
            <path d="M128.861,123.95L132.084,123.95L132.084,135.108L144.001,135.108L144.001,123.95L147.224,123.95L147.224,149.363L144.001,149.363L144.001,138.204L132.084,138.204L132.084,149.363L128.861,149.363L128.861,123.95Z" style="fill:rgb(204,204,204);fill-rule:nonzero;"/>
        </g>
    </g>
</svg>
